<svg width="62" height="62" viewBox="0 0 62 62" fill="none" xmlns="http://www.w3.org/2000/svg">
<g id="profile 1" clip-path="url(#clip0_32_62)">
<path id="Vector" fill-rule="evenodd" clip-rule="evenodd" d="M31 31C24.1614 31 18.6 25.4386 18.6 18.6C18.6 11.7614 24.1614 6.19997 31 6.19997C37.8386 6.19997 43.4 11.7614 43.4 18.6C43.4 25.4386 37.8386 31 31 31ZM42.6498 33.0862C44.8203 31.3472 46.5719 29.1425 47.775 26.6349C48.9781 24.1274 49.6018 21.3812 49.6 18.6C49.6023 15.4552 48.8071 12.3613 47.2889 9.60725C45.7707 6.85319 43.579 4.52873 40.9186 2.85173C38.2583 1.17473 35.2162 0.199795 32.0767 0.0177592C28.9372 -0.164277 25.8027 0.452789 22.9664 1.81108C20.13 3.16938 17.6844 5.22465 15.8581 7.78479C14.0317 10.3449 12.8843 13.3262 12.5231 16.4502C12.1619 19.5742 12.5986 22.7387 13.7926 25.648C14.9865 28.5574 16.8987 31.1165 19.3502 33.0862C8.00731 37.3487 0 47.8795 0 62H6.2C6.2 46.5 17.3259 37.2 31 37.2C44.6741 37.2 55.8 46.5 55.8 62H62C62 47.8795 53.9927 37.3487 42.6498 33.0862Z" fill="white"/>
</g>
<defs>
<clipPath id="clip0_32_62">
<rect width="62" height="62" fill="white"/>
</clipPath>
</defs>
</svg>
