<svg width="220" height="220" viewBox="0 0 220 220" fill="none" xmlns="http://www.w3.org/2000/svg">
<g id="thought-bubble-svgrepo-com 1" opacity="0.5">
<path id="Vector" d="M34.2229 105.411C26.035 94.6567 24.6277 85.8979 30.0011 79.134C35.3745 72.3701 43.433 71.2817 54.1767 75.8681C48.3931 63.2319 48.8634 55.3295 55.588 52.1613C62.3123 48.9932 72.7628 48.209 86.9391 49.8086C97.1042 37.0267 108.013 31.0869 119.665 31.9893C137.143 33.3427 149.411 36.556 154.617 59.3747C156.489 63.8792 180.071 56.914 188.727 70.6987C197.382 84.4839 195.661 102.586 188.727 103.998C181.792 105.411 205.54 102.802 196.222 117.208C192.961 122.251 178.517 135.229 168.524 138.123C149.969 143.497 131.652 135.89 122.293 131.699C118.62 127.055 103.308 149.316 82.8559 148.08C69.2208 147.256 61.4966 140.248 59.6838 127.055C53.8151 132.446 46.239 133.994 36.9552 131.699C23.0296 128.257 17.5287 116.235 26.0732 109.165" stroke="white" stroke-opacity="0.9" stroke-width="10" stroke-linecap="round" stroke-linejoin="round"/>
<path id="Vector_2" d="M41.6925 152.918C42.2465 151.666 43.3888 150.88 44.6041 150.571C45.2992 150.395 45.7455 150.364 46.4508 150.239C47.456 150.06 49.2452 150.566 49.9019 150.884C51.1964 151.51 51.8374 152.642 52.3618 153.887C52.8159 154.966 53.1684 156.152 53.0809 157.346C53.0811 157.866 52.9712 158.352 52.8658 158.864C52.1766 162.215 49.1846 163.743 47.582 163.906C45.9185 164.074 44.351 163.797 42.9319 162.819C42.5481 162.554 41.4471 161.609 41.0846 160.569C40.6732 159.388 40.2103 158.117 40.5785 156.805C40.7293 156.268 40.7626 155.66 41.2066 155.207" stroke="white" stroke-opacity="0.9" stroke-width="9" stroke-linecap="round" stroke-linejoin="round"/>
<path id="Vector_3" d="M29.3395 180.335C29.7249 179.434 30.5195 178.868 31.3649 178.645C31.8485 178.518 32.159 178.496 32.6496 178.406C33.3489 178.277 34.5935 178.642 35.0503 178.87C35.9508 179.321 36.3968 180.136 36.7615 181.033C37.0775 181.81 37.3227 182.663 37.2619 183.523C37.262 183.897 37.1855 184.247 37.1122 184.616C36.6328 187.029 34.5514 188.129 33.4365 188.246C32.2793 188.367 31.1888 188.168 30.2017 187.464C29.9346 187.273 29.1688 186.593 28.9166 185.844C28.6304 184.994 28.3084 184.079 28.5646 183.134C28.6694 182.747 28.6926 182.31 29.0014 181.983" stroke="white" stroke-opacity="0.9" stroke-width="7" stroke-linecap="round" stroke-linejoin="round"/>
</g>
</svg>
