<svg width="166" height="166" viewBox="0 0 166 166" fill="none" xmlns="http://www.w3.org/2000/svg">
<g id="lock-svgrepo-com 1" clip-path="url(#clip0_23_5)">
<g id="XMLID_504_">
<path id="XMLID_505_" d="M32.6954 165.992H133.297C137.464 165.992 140.842 162.614 140.842 158.447V72.936C140.842 68.7691 137.464 65.3909 133.297 65.3909H125.752V42.7556C125.752 19.1801 106.572 0 82.9961 0C59.4207 0 40.2405 19.1801 40.2405 42.7556V65.3909H32.6954C28.5285 65.3909 25.1503 68.7691 25.1503 72.936V158.447C25.1503 162.614 28.5285 165.992 32.6954 165.992ZM104.364 110.338L82.9865 131.715C81.5132 133.189 79.5822 133.926 77.6517 133.926C75.7211 133.926 73.7896 133.189 72.3168 131.715L61.6279 121.026C58.6813 118.08 58.6813 113.303 61.6279 110.356C64.574 107.41 69.3515 107.41 72.2981 110.356L77.6522 115.71L93.6951 99.6673C96.6412 96.7206 101.419 96.7206 104.365 99.6673C107.311 102.614 107.311 107.391 104.364 110.338ZM55.3307 42.7556C55.3307 27.5009 67.7414 15.0902 82.9961 15.0902C98.2508 15.0902 110.661 27.5009 110.661 42.7556V65.3909H55.3307V42.7556Z" fill="#F1D261"/>
</g>
</g>
<defs>
<clipPath id="clip0_23_5">
<rect width="165.992" height="165.992" fill="white"/>
</clipPath>
</defs>
</svg>
