<svg width="241" height="221" viewBox="0 0 241 221" fill="none" xmlns="http://www.w3.org/2000/svg">
<g id="heart-svgrepo-com 1" clip-path="url(#clip0_29_27)">
<path id="Vector" d="M97.0658 58.4282L95.4435 63.7164C96.8811 64.1574 98.4362 63.994 99.7509 63.264C101.066 62.5341 102.026 61.3004 102.412 59.847L97.0658 58.4282ZM103.927 146.738C100.923 146.186 98.0395 148.174 97.4873 151.178C96.935 154.182 98.9232 157.066 101.928 157.618L103.927 146.738ZM63.1156 144.012C65.6981 145.644 69.1145 144.873 70.7459 142.29C72.3774 139.707 71.6065 136.291 69.0239 134.66L63.1156 144.012ZM50.4434 114.992C42.7429 101.123 44.1218 85.1423 52.1036 74.3133C59.8579 63.7931 74.5196 57.2979 95.4435 63.7164L98.6881 53.1401C73.8605 45.5245 54.0881 52.9761 43.1986 67.7497C32.5367 82.2148 31.0622 102.875 40.7718 120.362L50.4434 114.992ZM124.601 161.231C129.35 162.001 134.437 162.809 139.196 162.913C143.953 163.017 148.999 162.448 153.451 159.976L148.081 150.304C146.084 151.413 143.303 151.939 139.439 151.853C135.576 151.768 131.248 151.102 126.372 150.311L124.601 161.231ZM169.769 136.152C174.941 123.793 182.085 108.955 185.542 93.4481C189.061 77.6623 188.941 60.5751 179.398 43.3887L169.726 48.7589C177.593 62.9272 177.859 77.0669 174.744 91.0416C171.567 105.295 165.059 118.751 159.564 131.881L169.769 136.152ZM179.398 43.3887C169.688 25.902 151.372 16.2307 133.457 17.6333C115.16 19.0656 98.3813 31.9092 91.7194 57.0095L102.412 59.847C108.026 38.6932 121.291 29.6821 134.32 28.6621C147.732 27.6122 162.026 34.8907 169.726 48.7589L179.398 43.3887ZM159.564 131.881C157.657 136.438 155.934 140.465 153.964 143.788C151.994 147.113 150.077 149.196 148.081 150.304L153.451 159.976C157.902 157.504 161.054 153.522 163.48 149.429C165.908 145.334 167.911 140.59 169.769 136.152L159.564 131.881ZM126.372 150.311C118.994 149.116 111.637 148.154 103.927 146.738L101.928 157.618C109.727 159.051 117.717 160.115 124.601 161.231L126.372 150.311ZM69.0239 134.66C61.7318 130.053 55.3346 123.8 50.4434 114.992L40.7718 120.362C46.6342 130.92 54.3832 138.495 63.1156 144.012L69.0239 134.66Z" fill="#F1D261"/>
</g>
<defs>
<clipPath id="clip0_29_27">
<rect width="177" height="177" fill="white" transform="translate(0 65.9233) rotate(-29.0415)"/>
</clipPath>
</defs>
</svg>
