<svg width="228" height="228" viewBox="0 0 228 228" fill="none" xmlns="http://www.w3.org/2000/svg">
<g id="heart-svgrepo-com 2" clip-path="url(#clip0_29_29)">
<path id="Vector" d="M158.602 130.171L156.378 125.106C155.001 125.71 153.93 126.849 153.411 128.261C152.891 129.672 152.969 131.233 153.626 132.586L158.602 130.171ZM95.7521 67.7561C98.3884 66.2128 99.2745 62.8246 97.7314 60.1883C96.1884 57.552 92.7998 56.6657 90.1636 58.209L95.7521 67.7561ZM128.446 43.177C125.425 43.6271 123.34 46.4413 123.79 49.4629C124.241 52.4845 127.055 54.5689 130.076 54.1188L128.446 43.177ZM156.991 56.8872C171.878 62.3652 181.266 75.3709 182.29 88.7846C183.284 101.816 176.418 116.308 156.378 125.106L160.825 135.236C184.604 124.796 194.716 106.243 193.32 87.943C191.953 70.0252 179.582 53.4126 160.811 46.5053L156.991 56.8872ZM70.6294 70.2742C66.53 72.7911 62.1492 75.5003 58.4763 78.528C54.8046 81.5549 51.3542 85.2808 49.5959 90.0593L59.9778 93.8796C60.7663 91.7367 62.5295 89.5227 65.5126 87.0645C68.4939 84.6071 72.2076 82.2863 76.4175 79.7017L70.6294 70.2742ZM52.7882 118.759C56.9392 131.497 61.2135 147.401 68.719 161.404C76.3591 175.659 87.6053 188.524 106.054 195.313L109.874 184.931C94.6654 179.334 85.233 168.797 78.4692 156.178C71.5708 143.307 67.716 128.865 63.3065 115.332L52.7882 118.759ZM106.054 195.313C124.825 202.22 145.013 197.589 157.668 184.83C170.593 171.8 174.918 151.118 163.578 127.755L153.626 132.586C163.183 152.275 159.018 167.761 149.814 177.04C140.34 186.591 124.761 190.409 109.874 184.931L106.054 195.313ZM63.3065 115.332C61.7761 110.635 60.4524 106.46 59.7751 102.657C59.0969 98.8512 59.1893 96.0224 59.9778 93.8796L49.5959 90.0593C47.8375 94.8377 48.0498 99.9115 48.8839 104.596C49.7181 109.283 51.2981 114.185 52.7882 118.759L63.3065 115.332ZM76.4175 79.7017C82.787 75.7909 88.9874 71.7161 95.7521 67.7561L90.1636 58.209C83.3197 62.2153 76.5733 66.6249 70.6294 70.2742L76.4175 79.7017ZM130.076 54.1188C138.607 52.8478 147.535 53.4077 156.991 56.8872L160.811 46.5053C149.478 42.3348 138.662 41.6552 128.446 43.177L130.076 54.1188Z" fill="#F1D261"/>
</g>
<defs>
<clipPath id="clip0_29_29">
<rect width="177" height="177" fill="white" transform="translate(227.235 61.1245) rotate(110.202)"/>
</clipPath>
</defs>
</svg>
