<svg width="63" height="84" viewBox="0 0 63 84" fill="none" xmlns="http://www.w3.org/2000/svg">
<g id="ghost 1" clip-path="url(#clip0_13_27)">
<path id="Vector" d="M30.532 0.0167382C13.2891 0.529598 0 15.5617 0 32.8128V76.1253C0 78.4632 2.83828 79.633 4.47891 77.971L8.57227 74.9359C9.65918 74.1154 11.1973 74.2795 12.0996 75.305L19.1543 83.2309C20.1797 84.2564 21.84 84.2564 22.8654 83.2309L29.5296 75.7152C30.5755 74.5256 32.4204 74.5256 33.4671 75.7152L40.133 83.2309C41.1584 84.2564 42.8203 84.2564 43.8441 83.2309L50.8988 75.305C51.8011 74.2795 53.34 74.1154 54.4261 74.9359L58.5195 77.971C60.1601 79.633 62.9984 78.4635 62.9984 76.1253V31.4998C63 13.7778 48.382 -0.516498 30.532 0.0167382ZM21 36.7498C18.1092 36.7498 15.8977 34.3906 15.8977 31.4982C15.8977 28.6057 18.2569 26.2465 21 26.2465C23.7431 26.2465 26.25 28.6057 26.25 31.4982C26.25 34.3906 23.8875 36.7498 21 36.7498ZM42 36.7498C39.1092 36.7498 36.75 34.3906 36.75 31.4982C36.75 28.6057 39.1092 26.2465 42 26.2465C44.8908 26.2465 47.25 28.6057 47.25 31.4982C47.25 34.3906 44.8875 36.7498 42 36.7498Z" fill="white"/>
</g>
<defs>
<clipPath id="clip0_13_27">
<rect width="63" height="84" fill="white"/>
</clipPath>
</defs>
</svg>
